# xmcd
# 
# Track frame offsets:
#     150
#     13762
#     26965
#     38617
#     48875
#     65180
#     77645
#     91950
#     103895
#     118780
#     131807
#     145760
#     154887
#     167485
#     177090
#     187117
#     198750
#     211727
#     225182
#     238760
#     249225
#     260895
#     272000
#     281320
#     291595
#     301602
#     313655
#     324995
#     336090
# 
# Disc length: 4768
# 
# Revision: 2
# Processed by: cddbd v1.5.2PL0 Copyright (c) Steve Scherf et al.
# Submitted via: fre:ac v1.0.17
# 
DISCID=9d129e1d
DTITLE=The Davis Sisters - Memories - 1
DYEAR=0
DGENRE=Country
TTITLE0=I Forgot More Than You'll Ever Know
TTITLE1=Sorrow And Pain
TTITLE2=Rock-A-Bye Boogie
TTITLE3=You're Gone
TTITLE4=Sorrow And Pain
TTITLE5=You're Gone
TTITLE6=Heartbreak Ahead
TTITLE7=Jealous Love
TTITLE8=Sorrow And Pain
TTITLE9=Kaw-Liga
TTITLE10=Heartbreak Ahead
TTITLE11=Rag Mop
TTITLE12=Your Cheatin' Heart
TTITLE13=Crying Steel Guitar Waltz
TTITLE14=Just When I Needed You
TTITLE15=It Wasn't God Who Made Honky Tonk Angels
TTITLE16=Tomorrow's Just Another Day To Cry
TTITLE17=Tomorrow I'll Cry
TTITLE18=Jambalaya
TTITLE19=Takin' Time Out For Tears
TTITLE20=Rock-A-Bye Boogie
TTITLE21=Takin' Time Out For Tears
TTITLE22=Gotta Git A-Goin'
TTITLE23=You Weren't Ashamed To Kiss Me Last Night
TTITLE24=Foggy Mountain Top
TTITLE25=Just Like Me
TTITLE26=Don't Take Him For Granted
TTITLE27=I've Closed The Door
TTITLE28=Rock-A-Bye Boogie - I Forgot More Than You'll Ever Know - Gotta Git A-Goin'
EXTD=
EXTT0=
EXTT1=
EXTT2=
EXTT3=
EXTT4=
EXTT5=
EXTT6=
EXTT7=
EXTT8=
EXTT9=
EXTT10=
EXTT11=
EXTT12=
EXTT13=
EXTT14=
EXTT15=
EXTT16=
EXTT17=
EXTT18=
EXTT19=
EXTT20=
EXTT21=
EXTT22=
EXTT23=
EXTT24=
EXTT25=
EXTT26=
EXTT27=
EXTT28=
PLAYORDER=
